<!--
@license lucide-preact v0.540.0 - ISC
This source code is licensed under the ISC license.
-->
<svg xmlns="http://www.w3.org/2000/svg" class="icon-defs" aria-hidden="true">
	<defs>
		<svg id="icon-user" viewBox="0 0 24 24" fill="none"
			stroke="currentColor" stroke-width="2" stroke-linecap="round"
			stroke-linejoin="round">
			<path d="M19 21v-2a4 4 0 0 0-4-4H9a4 4 0 0 0-4 4v2" />
			<circle cx="12" cy="7" r="4" />
		</svg>
		<svg id="icon-hat-glasses" viewBox="0 0 24 24" fill="none"
			stroke="currentColor" stroke-width="2" stroke-linecap="round"
			stroke-linejoin="round">
			<path d="M14 18a2 2 0 0 0-4 0" />
			<path
				d="m19 11-2.11-6.657a2 2 0 0 0-2.752-1.148l-1.276.61A2 2 0 0 1 12 4H8.5a2 2 0 0 0-1.925 1.456L5 11" />
			<path d="M2 11h20" />
			<circle cx="17" cy="18" r="3" />
			<circle cx="7" cy="18" r="3" />
		</svg>
		<svg id="icon-x" viewBox="0 0 24 24" fill="none" stroke="currentColor"
			stroke-width="2" stroke-linecap="round" stroke-linejoin="round">
			<path d="M18 6 6 18" />
			<path d="m6 6 12 12" />
		</svg>
	</defs>
</svg>
